<svg xmlns="http://www.w3.org/2000/svg" width="13.555" height="16.841" viewBox="0 0 13.555 16.841">
  <path id="Path_1859" data-name="Path 1859" d="M24.452,5.7c-4.173-.434-5.375-2.838-5.425-2.938a.481.481,0,0,0-.434-.267h0a.481.481,0,0,0-.434.267c-.05.1-1.252,2.5-5.425,2.938a.472.472,0,0,0-.434.467v4.14c0,4.807,5.809,7.862,6.059,7.979a.5.5,0,0,0,.434,0c.25-.134,6.059-3.171,6.059-7.979V6.172A.454.454,0,0,0,24.452,5.7Z" transform="translate(-11.8 -2)" fill="none" stroke="#f58828" stroke-width="1"/>
</svg>
