<svg xmlns="http://www.w3.org/2000/svg" xmlns:xlink="http://www.w3.org/1999/xlink" width="104.203" height="102.518" viewBox="0 0 104.203 102.518">
  <defs>
    <filter id="Path_1835" x="9.372" y="0" width="92.606" height="77.958" filterUnits="userSpaceOnUse">
      <feOffset dy="3" input="SourceAlpha"/>
      <feGaussianBlur stdDeviation="3" result="blur"/>
      <feFlood flood-opacity="0.161"/>
      <feComposite operator="in" in2="blur"/>
      <feComposite in="SourceGraphic"/>
    </filter>
    <linearGradient id="linear-gradient" x1="1.149" y1="-0.235" x2="1.091" y2="3.661" gradientUnits="objectBoundingBox">
      <stop offset="0" stop-color="#e3ebfd"/>
      <stop offset="0.996" stop-color="#0090d4"/>
    </linearGradient>
    <linearGradient id="linear-gradient-2" x1="5.642" y1="-0.591" x2="5.281" y2="2.636" xlink:href="#linear-gradient"/>
    <linearGradient id="linear-gradient-3" x1="6.641" y1="-0.752" x2="6.28" y2="2.474" xlink:href="#linear-gradient"/>
    <linearGradient id="linear-gradient-4" x1="7.644" y1="-0.914" x2="7.282" y2="2.313" xlink:href="#linear-gradient"/>
    <linearGradient id="linear-gradient-5" x1="7.917" y1="-0.178" x2="7.556" y2="1.483" xlink:href="#linear-gradient"/>
    <linearGradient id="linear-gradient-6" x1="8.92" y1="-0.261" x2="8.558" y2="1.4" xlink:href="#linear-gradient"/>
    <linearGradient id="linear-gradient-7" x1="9.919" y1="-0.344" x2="9.557" y2="1.317" xlink:href="#linear-gradient"/>
    <linearGradient id="linear-gradient-8" x1="10.921" y1="-0.427" x2="10.56" y2="1.234" xlink:href="#linear-gradient"/>
    <linearGradient id="linear-gradient-9" x1="11.921" y1="-0.51" x2="11.559" y2="1.151" xlink:href="#linear-gradient"/>
    <linearGradient id="linear-gradient-10" x1="1.417" y1="0.783" x2="1.359" y2="4.679" xlink:href="#linear-gradient"/>
    <linearGradient id="linear-gradient-11" x1="6.215" y1="0.683" x2="5.853" y2="3.909" xlink:href="#linear-gradient"/>
    <linearGradient id="linear-gradient-12" x1="6.512" y1="0.49" x2="6.151" y2="3.716" xlink:href="#linear-gradient"/>
    <linearGradient id="linear-gradient-13" x1="6.813" y1="0.297" x2="6.451" y2="3.524" xlink:href="#linear-gradient"/>
    <linearGradient id="linear-gradient-14" x1="7.057" y1="0.332" x2="6.696" y2="1.993" xlink:href="#linear-gradient"/>
    <linearGradient id="linear-gradient-15" x1="7.358" y1="0.233" x2="6.996" y2="1.893" xlink:href="#linear-gradient"/>
    <linearGradient id="linear-gradient-16" x1="7.655" y1="0.133" x2="7.294" y2="1.794" xlink:href="#linear-gradient"/>
    <linearGradient id="linear-gradient-17" x1="7.956" y1="0.034" x2="7.594" y2="1.695" xlink:href="#linear-gradient"/>
    <linearGradient id="linear-gradient-18" x1="8.254" y1="-0.065" x2="7.892" y2="1.596" xlink:href="#linear-gradient"/>
    <filter id="Path_1884" x="0" y="20.686" width="101.978" height="81.833" filterUnits="userSpaceOnUse">
      <feOffset dy="3" input="SourceAlpha"/>
      <feGaussianBlur stdDeviation="3" result="blur-2"/>
      <feFlood flood-opacity="0.161"/>
      <feComposite operator="in" in2="blur-2"/>
      <feComposite in="SourceGraphic"/>
    </filter>
  </defs>
  <g id="Group_1281" data-name="Group 1281" transform="translate(-61.338 265.051)">
    <g transform="matrix(1, 0, 0, 1, 61.34, -265.05)" filter="url(#Path_1835)">
      <path id="Path_1835-2" data-name="Path 1835" d="M132.457-257.846c-7.344-2.537-48.816,20.715-48.816,20.715-.141-.03-.283-.054-.431-.08-.258-.052-.518-.1-.779-.143l20.743,32.736,18.92,6.536,34.944-12.475a1.873,1.873,0,0,1-1.531-.986S139.022-255.579,132.457-257.846Z" transform="translate(-64.06 264.04)" fill="#fca360"/>
    </g>
    <g id="Group_1270" data-name="Group 1270" transform="translate(85.102 -262.532)">
      <g id="Group_1266" data-name="Group 1266" transform="translate(0)">
        <rect id="Rectangle_1392" data-name="Rectangle 1392" width="62.992" height="54.436" transform="translate(0 52.084) rotate(-55.775)" fill="#fff"/>
        <g id="Group_1265" data-name="Group 1265" transform="translate(6.796 17.201)" opacity="0.52">
          <rect id="Rectangle_1393" data-name="Rectangle 1393" width="16.258" height="19.151" transform="translate(12.622 13.449) rotate(-55.815)" fill="url(#linear-gradient)"/>
          <g id="Group_1264" data-name="Group 1264" transform="translate(0 14.944)">
            <rect id="Rectangle_1394" data-name="Rectangle 1394" width="2.592" height="23.124" transform="translate(35.796 3.185) rotate(-55.815)" fill="url(#linear-gradient-2)"/>
            <g id="Group_1263" data-name="Group 1263">
              <rect id="Rectangle_1395" data-name="Rectangle 1395" width="2.592" height="23.124" transform="translate(33.258 6.921) rotate(-55.815)" fill="url(#linear-gradient-3)"/>
              <g id="Group_1262" data-name="Group 1262">
                <rect id="Rectangle_1396" data-name="Rectangle 1396" width="2.592" height="23.124" transform="translate(30.721 10.657) rotate(-55.815)" fill="url(#linear-gradient-4)"/>
                <rect id="Rectangle_1397" data-name="Rectangle 1397" width="2.592" height="44.924" transform="translate(10.15 2.144) rotate(-55.815)" fill="url(#linear-gradient-5)"/>
                <rect id="Rectangle_1398" data-name="Rectangle 1398" width="2.592" height="44.924" transform="translate(7.613 5.88) rotate(-55.815)" fill="url(#linear-gradient-6)"/>
                <rect id="Rectangle_1399" data-name="Rectangle 1399" width="2.592" height="44.924" transform="translate(5.075 9.616) rotate(-55.815)" fill="url(#linear-gradient-7)"/>
                <rect id="Rectangle_1400" data-name="Rectangle 1400" width="2.592" height="44.924" transform="translate(2.538 13.352) rotate(-55.815)" fill="url(#linear-gradient-8)"/>
                <rect id="Rectangle_1401" data-name="Rectangle 1401" width="2.592" height="44.924" transform="translate(0 17.088) rotate(-55.815)" fill="url(#linear-gradient-9)"/>
              </g>
            </g>
          </g>
        </g>
      </g>
      <g id="Group_1269" data-name="Group 1269" transform="translate(39.236 18.456)">
        <path id="Path_1836" data-name="Path 1836" d="M157.023-227.161l.018-.029.652-1.029-.354-.224.281-.441.353.223.5-.792.617.391-.5.793.516.326-.279.441-.516-.326-.652,1.029a.281.281,0,0,0,.134.373l.263.167-.279.441-.439-.278a.743.743,0,0,1-.314-1.063Z" transform="translate(-143.818 236.633)" fill="#009cf6"/>
        <path id="Path_1837" data-name="Path 1837" d="M151.97-229.24l-.857-.542a.743.743,0,0,1-.3-1.093.766.766,0,0,1,1.114-.2l.857.542.074-.116a.309.309,0,0,0-.1-.432l-1.146-.725.279-.441,1.323.838a.77.77,0,0,1,.258,1.152l-.893,1.41-.617-.391Zm.539-.852-.68-.431a.282.282,0,0,0-.4.039.282.282,0,0,0,.134.373l.681.431Z" transform="translate(-142.417 237.262)" fill="#009cf6"/>
        <path id="Path_1838" data-name="Path 1838" d="M149.809-231.771a.282.282,0,0,0,.135.373l.263.167-.279.441-.439-.278a.742.742,0,0,1-.314-1.063l.018-.029.652-1.028-.354-.224.281-.442.353.224.5-.793.617.391-.5.792.515.326-.279.441-.516-.326Zm-.635-.361.018-.029Z" transform="translate(-142.051 237.751)" fill="#009cf6"/>
        <path id="Path_1839" data-name="Path 1839" d="M140.282-238.059a1.114,1.114,0,0,1,1.64-.443l.881.558-.279.441-.705-.447a.574.574,0,0,0-.808.106l-.224.353a.574.574,0,0,0,.25.776l.705.446-.28.441-.881-.559A1.114,1.114,0,0,1,140.282-238.059Z" transform="translate(-140.019 238.717)" fill="#009cf6"/>
        <path id="Path_1840" data-name="Path 1840" d="M169.884-220.767l-.279.44-1.117-.707a.272.272,0,0,0-.394.038.261.261,0,0,0,.1.349l.546.346a.742.742,0,0,1,.3,1.093.766.766,0,0,1-1.114.2l-1.293-.818.279-.441,1.117.707a.272.272,0,0,0,.394-.038.261.261,0,0,0-.1-.349l-.545-.346a.742.742,0,0,1-.3-1.093.767.767,0,0,1,1.114-.2Z" transform="translate(-146.007 234.898)" fill="#009cf6"/>
        <path id="Path_1841" data-name="Path 1841" d="M163.965-221.62l1.34-2.116.353.223.264.167.441.279a.77.77,0,0,1,.258,1.152l-.149.236-.617-.391.149-.235a.308.308,0,0,0-.1-.432l-.264-.167-1.061,1.675Z" transform="translate(-145.408 235.346)" fill="#009cf6"/>
        <path id="Path_1842" data-name="Path 1842" d="M162.509-222.566l-.857-.542a.742.742,0,0,1-.3-1.093.766.766,0,0,1,1.114-.2l.856.542.074-.116a.307.307,0,0,0-.1-.432l-1.145-.725.279-.441,1.322.837a.77.77,0,0,1,.259,1.152l-.894,1.41-.617-.391Zm.539-.852-.68-.431a.282.282,0,0,0-.394.038.281.281,0,0,0,.134.373l.68.432Z" transform="translate(-144.789 235.759)" fill="#009cf6"/>
        <path id="Path_1843" data-name="Path 1843" d="M154.184-229.255a1.114,1.114,0,0,1,1.639-.444l.882.559-.28.44-.7-.446a.574.574,0,0,0-.808.106l-.223.352a.574.574,0,0,0,.25.776l.705.447-.279.44-.881-.558A1.114,1.114,0,0,1,154.184-229.255Z" transform="translate(-143.147 236.736)" fill="#009cf6"/>
        <path id="Path_1844" data-name="Path 1844" d="M159.049-226.174a1.114,1.114,0,0,1,1.639-.444l.881.558-.279.441-.705-.446a.574.574,0,0,0-.808.105l-.223.353a.574.574,0,0,0,.25.776l.705.446-.279.441-.882-.558A1.114,1.114,0,0,1,159.049-226.174Z" transform="translate(-144.242 236.043)" fill="#009cf6"/>
        <path id="Path_1845" data-name="Path 1845" d="M146.746-235.489l1.322.838a.77.77,0,0,1,.259,1.152l-.893,1.41-.617-.391.893-1.41a.309.309,0,0,0-.1-.432l-.529-.335-1.06,1.675-.617-.391Z" transform="translate(-141.231 237.991)" fill="#009cf6"/>
        <path id="Path_1846" data-name="Path 1846" d="M145.2-234.948a1.209,1.209,0,0,1-1.825.394,1.2,1.2,0,0,1-.418-1.815,1.229,1.229,0,0,1,1.82-.4A1.235,1.235,0,0,1,145.2-234.948Zm-.712-1.359c-.349-.221-.65-.142-.938.314s-.236.759.117.983.653.143.941-.313S144.843-236.085,144.492-236.308Z" transform="translate(-140.625 238.333)" fill="#009cf6"/>
        <g id="Group_1268" data-name="Group 1268" transform="translate(12.38 12.445)">
          <path id="Path_1847" data-name="Path 1847" d="M165.449-218.7l.529.335.618.391a.77.77,0,0,1,.258,1.152l-.893,1.41-.617-.391.893-1.41a.308.308,0,0,0-.1-.432l-.353-.223-1.06,1.675-.618-.391,1.061-1.675-.529-.336-1.06,1.675-.617-.391,1.339-2.115Z" transform="translate(-157.563 221.932)" fill="#f58828"/>
          <path id="Path_1848" data-name="Path 1848" d="M157.84-222a1.115,1.115,0,0,1,1.64-.444l.881.558-.279.441-.705-.446a.574.574,0,0,0-.808.105l-.224.353a.574.574,0,0,0,.25.776l.705.446-.28.441-.881-.558A1.115,1.115,0,0,1,157.84-222Z" transform="translate(-156.35 222.659)" fill="#f58828"/>
          <path id="Path_1849" data-name="Path 1849" d="M162.732-218.97a1.209,1.209,0,0,1-1.825.394,1.2,1.2,0,0,1-.418-1.815,1.23,1.23,0,0,1,1.82-.4A1.234,1.234,0,0,1,162.732-218.97Zm-.712-1.359c-.349-.221-.649-.142-.938.314s-.235.759.118.983.652.143.94-.312S162.371-220.107,162.02-220.33Z" transform="translate(-156.95 222.292)" fill="#f58828"/>
          <g id="Group_1267" data-name="Group 1267" transform="translate(0 0.626)">
            <path id="Path_1850" data-name="Path 1850" d="M156.356-221.851l.553.35-.361.571-.553-.35.361-.571Z" transform="translate(-155.994 221.851)" fill="#f58828"/>
            <path id="Path_1851" data-name="Path 1851" d="M156.585-221.256" transform="translate(-156.127 221.717)" fill="#f58828"/>
          </g>
        </g>
        <path id="Path_1852" data-name="Path 1852" d="M176.008-217.272a5.424,5.424,0,0,1-1.318,2.068l-1.007-2.3a2.749,2.749,0,0,0,.948-1.3c.035-.094.065-.189.091-.285l1.611.566A6.7,6.7,0,0,1,176.008-217.272Z" transform="translate(-147.595 234.3)" fill="#5bd1ff"/>
        <path id="Path_1853" data-name="Path 1853" d="M172.8-216.76l1.04,2.373a4.211,4.211,0,0,1-2.444.915l.236-3.094A2.19,2.19,0,0,0,172.8-216.76Z" transform="translate(-147.079 233.776)" fill="#abe5ff"/>
        <path id="Path_1854" data-name="Path 1854" d="M176.584-220.157l-1.579-.554a3.109,3.109,0,0,0-.01-1.255l.814-1.09-1.257-.168c.009,0,.009-.005,0,0l1.214-1.2A7.826,7.826,0,0,1,176.584-220.157Z" transform="translate(-147.79 235.501)" fill="#00bcff"/>
        <path id="Path_1855" data-name="Path 1855" d="M170.637-216.692l-.241,3.173a4.6,4.6,0,0,1-1.534-.371l1.187-3.059A2.643,2.643,0,0,0,170.637-216.692Z" transform="translate(-146.51 233.819)" fill="#edf9ff"/>
        <path id="Path_1856" data-name="Path 1856" d="M174.552-222.876c.009-.005.009,0,0,0Z" transform="translate(-147.79 235.153)" fill="#5aa6db"/>
        <path id="Path_1857" data-name="Path 1857" d="M175.054-225.642l-1.231,1.216a3.335,3.335,0,0,0-.942-.914,2.714,2.714,0,0,0-.548-.269l.19-2.5c.146.075.291.158.436.25A6.483,6.483,0,0,1,175.054-225.642Z" transform="translate(-147.291 236.33)" fill="#00a9ff"/>
        <path id="Path_1858" data-name="Path 1858" d="M171.186-228.449l-.2,2.578a2.224,2.224,0,0,0-1.929.614l-.013-.035-.818-3.3A4.319,4.319,0,0,1,171.186-228.449Z" transform="translate(-146.368 236.482)" fill="#009cf6"/>
        <path id="Path_1859" data-name="Path 1859" d="M174.218-222.371l-3.182,3.111.058-1.847-1.326-1.288Z" transform="translate(-146.714 235.044)" fill="#f58828"/>
      </g>
    </g>
    <g id="Group_1279" data-name="Group 1279" transform="translate(77.364 -245.211)">
      <g id="Group_1275" data-name="Group 1275" transform="translate(0)">
        <rect id="Rectangle_1402" data-name="Rectangle 1402" width="47.069" height="40.676" transform="translate(0 46.465) rotate(-80.807)" fill="#fff"/>
        <g id="Group_1274" data-name="Group 1274" transform="translate(3.7 13.82)" opacity="0.52">
          <rect id="Rectangle_1403" data-name="Rectangle 1403" width="12.148" height="14.31" transform="translate(2.67 11.994) rotate(-80.847)" fill="url(#linear-gradient-10)"/>
          <g id="Group_1273" data-name="Group 1273" transform="translate(0 5.923)">
            <rect id="Rectangle_1404" data-name="Rectangle 1404" width="1.936" height="17.279" transform="translate(19.84 1.912) rotate(-80.847)" fill="url(#linear-gradient-11)"/>
            <g id="Group_1272" data-name="Group 1272" transform="translate(0 3.331)">
              <rect id="Rectangle_1405" data-name="Rectangle 1405" width="1.937" height="17.279" transform="translate(19.303 1.912) rotate(-80.847)" fill="url(#linear-gradient-12)"/>
              <g id="Group_1271" data-name="Group 1271" transform="translate(0 3.332)">
                <rect id="Rectangle_1406" data-name="Rectangle 1406" width="1.937" height="17.279" transform="translate(18.766 1.912) rotate(-80.847)" fill="url(#linear-gradient-13)"/>
                <rect id="Rectangle_1407" data-name="Rectangle 1407" width="1.937" height="33.569" transform="translate(2.147 2.653) rotate(-80.847)" fill="url(#linear-gradient-14)"/>
                <rect id="Rectangle_1408" data-name="Rectangle 1408" width="1.937" height="33.569" transform="translate(1.61 5.984) rotate(-80.847)" fill="url(#linear-gradient-15)"/>
                <rect id="Rectangle_1409" data-name="Rectangle 1409" width="1.937" height="33.569" transform="translate(1.074 9.316) rotate(-80.847)" fill="url(#linear-gradient-16)"/>
                <rect id="Rectangle_1410" data-name="Rectangle 1410" width="1.937" height="33.569" transform="translate(0.537 12.647) rotate(-80.847)" fill="url(#linear-gradient-17)"/>
                <rect id="Rectangle_1411" data-name="Rectangle 1411" width="1.937" height="33.569" transform="translate(0 15.979) rotate(-80.847)" fill="url(#linear-gradient-18)"/>
              </g>
            </g>
          </g>
        </g>
      </g>
      <g id="Group_1278" data-name="Group 1278" transform="translate(16.301 8.882)">
        <path id="Path_1860" data-name="Path 1860" d="M115.308-223.307l0-.025.116-.9-.311-.04.05-.387.31.04.089-.7.541.07-.089.7.453.058-.05.386-.453-.057-.115.9c-.01.077.053.19.208.21l.231.029-.05.387-.386-.05a.555.555,0,0,1-.549-.621Z" transform="translate(-103.742 227.954)" fill="#009cf6"/>
        <path id="Path_1861" data-name="Path 1861" d="M111.2-223.085l-.752-.1a.555.555,0,0,1-.546-.646.572.572,0,0,1,.691-.487l.752.1.013-.1a.229.229,0,0,0-.2-.261l-1.005-.129.05-.387,1.16.149a.575.575,0,0,1,.539.7l-.159,1.237-.541-.069Zm.1-.747-.6-.077a.211.211,0,0,0-.255.15c-.01.077.054.191.209.211l.6.077Z" transform="translate(-102.568 227.905)" fill="#009cf6"/>
        <path id="Path_1862" data-name="Path 1862" d="M108.967-224.147c-.01.077.053.191.208.21l.231.029-.05.387-.386-.05a.554.554,0,0,1-.549-.62l0-.026.116-.9-.311-.04.05-.387.31.04.089-.7.541.07-.089.7.453.058-.05.387-.453-.058Zm-.545-.043,0-.026Z" transform="translate(-102.193 228.153)" fill="#009cf6"/>
        <path id="Path_1863" data-name="Path 1863" d="M100.457-225.383a.833.833,0,0,1,.969-.819l.773.1-.05.387-.618-.079a.43.43,0,0,0-.514.327l-.04.309a.429.429,0,0,0,.415.446l.618.079-.05.387-.773-.1A.833.833,0,0,1,100.457-225.383Z" transform="translate(-100.439 228.156)" fill="#009cf6"/>
        <path id="Path_1864" data-name="Path 1864" d="M126.035-223.05l-.05.387-.98-.126c-.155-.02-.244.061-.255.15a.194.194,0,0,0,.177.2l.479.061a.556.556,0,0,1,.546.647.573.573,0,0,1-.691.487l-1.134-.146.05-.387.979.126c.155.02.244-.061.256-.15a.2.2,0,0,0-.177-.2l-.479-.062a.555.555,0,0,1-.546-.646.573.573,0,0,1,.691-.487Z" transform="translate(-105.77 227.478)" fill="#009cf6"/>
        <path id="Path_1865" data-name="Path 1865" d="M121.775-221.729l.239-1.855.309.04.232.029.387.05a.576.576,0,0,1,.539.7l-.026.206-.542-.07.026-.206a.229.229,0,0,0-.2-.261l-.232-.03-.188,1.469Z" transform="translate(-105.241 227.564)" fill="#009cf6"/>
        <path id="Path_1866" data-name="Path 1866" d="M120.448-221.9l-.752-.1a.555.555,0,0,1-.546-.647.573.573,0,0,1,.691-.487l.752.1.013-.1a.23.23,0,0,0-.2-.262l-1.005-.129.05-.387,1.159.149a.575.575,0,0,1,.539.7l-.159,1.237-.541-.07Zm.1-.747-.6-.077a.21.21,0,0,0-.255.15c-.01.077.054.191.209.21l.6.077Z" transform="translate(-104.649 227.638)" fill="#009cf6"/>
        <path id="Path_1867" data-name="Path 1867" d="M112.653-223.818a.833.833,0,0,1,.969-.819l.773.1-.05.386-.618-.079a.428.428,0,0,0-.513.327l-.04.309a.43.43,0,0,0,.415.446l.618.079-.05.387-.773-.1A.833.833,0,0,1,112.653-223.818Z" transform="translate(-103.184 227.803)" fill="#009cf6"/>
        <path id="Path_1868" data-name="Path 1868" d="M116.92-223.27a.833.833,0,0,1,.969-.819l.773.1-.05.387-.618-.079a.429.429,0,0,0-.514.327l-.04.309a.429.429,0,0,0,.415.446l.618.079-.05.387-.773-.1A.833.833,0,0,1,116.92-223.27Z" transform="translate(-104.144 227.68)" fill="#009cf6"/>
        <path id="Path_1869" data-name="Path 1869" d="M105.733-225.674l1.16.149a.575.575,0,0,1,.539.7l-.158,1.237-.542-.069.159-1.238a.23.23,0,0,0-.2-.262l-.464-.059-.188,1.469-.541-.069Z" transform="translate(-101.577 228.035)" fill="#009cf6"/>
        <path id="Path_1870" data-name="Path 1870" d="M104.769-224.843a.9.9,0,0,1-1.111.844.9.9,0,0,1-.857-1.1.918.918,0,0,1,1.107-.845A.921.921,0,0,1,104.769-224.843Zm-.911-.7c-.306-.04-.485.109-.536.509s.081.588.39.628.487-.109.538-.508S104.165-225.5,103.858-225.538Z" transform="translate(-100.968 228.097)" fill="#009cf6"/>
        <g id="Group_1277" data-name="Group 1277" transform="translate(12.326 6.068)">
          <path id="Path_1871" data-name="Path 1871" d="M123.7-220.224l.464.06.541.069a.576.576,0,0,1,.539.7l-.159,1.237-.541-.069.159-1.238a.23.23,0,0,0-.2-.261l-.309-.04-.189,1.469-.541-.07.188-1.469-.464-.06L123-218.427l-.541-.07.238-1.856Z" transform="translate(-117.721 220.77)" fill="#f58828"/>
          <path id="Path_1872" data-name="Path 1872" d="M117.421-220.062a.833.833,0,0,1,.969-.818l.773.1-.05.386-.618-.079a.43.43,0,0,0-.514.327l-.04.309a.429.429,0,0,0,.415.446l.618.079-.05.387-.773-.1A.833.833,0,0,1,117.421-220.062Z" transform="translate(-116.583 220.891)" fill="#f58828"/>
          <path id="Path_1873" data-name="Path 1873" d="M121.688-219.567a.9.9,0,0,1-1.111.844.9.9,0,0,1-.856-1.1.918.918,0,0,1,1.106-.845A.921.921,0,0,1,121.688-219.567Zm-.911-.7c-.306-.04-.485.109-.536.509s.081.588.39.628.487-.109.539-.508S121.085-220.222,120.777-220.262Z" transform="translate(-117.102 220.842)" fill="#f58828"/>
          <g id="Group_1276" data-name="Group 1276" transform="translate(0 1.164)">
            <path id="Path_1874" data-name="Path 1874" d="M116.409-219.389l.485.062-.064.5-.485-.062.064-.5Z" transform="translate(-116.345 219.389)" fill="#f58828"/>
            <path id="Path_1875" data-name="Path 1875" d="M116.7-219.026" transform="translate(-116.424 219.307)" fill="#f58828"/>
          </g>
        </g>
        <path id="Path_1876" data-name="Path 1876" d="M131.255-222.6a4.05,4.05,0,0,1-.239,1.817l-1.408-1.238a2.053,2.053,0,0,0,.231-1.18c-.007-.074-.016-.148-.029-.222l1.269-.126A5,5,0,0,1,131.255-222.6Z" transform="translate(-107.003 227.557)" fill="#5bd1ff"/>
        <path id="Path_1877" data-name="Path 1877" d="M129.162-221.236l1.454,1.278a3.144,3.144,0,0,1-1.365,1.392l-.819-2.168A1.646,1.646,0,0,0,129.162-221.236Z" transform="translate(-106.739 227.036)" fill="#abe5ff"/>
        <path id="Path_1878" data-name="Path 1878" d="M130.7-224.716l-1.245.124a2.308,2.308,0,0,0-.4-.846l.206-1-.9.284c.005,0,0-.006,0,0l.442-1.2A5.855,5.855,0,0,1,130.7-224.716Z" transform="translate(-106.721 228.411)" fill="#00bcff"/>
        <path id="Path_1879" data-name="Path 1879" d="M127.89-220.491l.84,2.225a3.416,3.416,0,0,1-1.155.233l-.164-2.446A1.963,1.963,0,0,0,127.89-220.491Z" transform="translate(-106.509 226.868)" fill="#edf9ff"/>
        <path id="Path_1880" data-name="Path 1880" d="M128.353-225.8c0-.006.005,0,0,0Z" transform="translate(-106.721 228.064)" fill="#5aa6db"/>
        <path id="Path_1881" data-name="Path 1881" d="M127.855-227.851l-.449,1.212a2.5,2.5,0,0,0-.926-.321,2.058,2.058,0,0,0-.456-.009l-.661-1.751c.122,0,.247.015.374.031A4.835,4.835,0,0,1,127.855-227.851Z" transform="translate(-106.048 228.72)" fill="#00a9ff"/>
        <path id="Path_1882" data-name="Path 1882" d="M124.329-228.716l.683,1.807a1.661,1.661,0,0,0-1.112,1.025l-.02-.019-1.6-1.973A3.222,3.222,0,0,1,124.329-228.716Z" transform="translate(-105.355 228.719)" fill="#009cf6"/>
        <path id="Path_1883" data-name="Path 1883" d="M128.285-225.759l-1.171,3.113-.545-1.269-1.3-.453Z" transform="translate(-106.026 228.054)" fill="#f58828"/>
      </g>
    </g>
    <g id="Group_1280" data-name="Group 1280" transform="translate(70.338 -238.365)">
      <g transform="matrix(1, 0, 0, 1, -9, -26.69)" filter="url(#Path_1884)">
        <path id="Path_1884-2" data-name="Path 1884" d="M154.316-204.55s-8.71,22.869-17.25,37.036c0,0-35.429-10.006-66.728-22.03,0,0,2.342-23.217,9.372-41.8l20.743,32.736,18.92,6.536Z" transform="translate(-61.34 258.03)" fill="#0c6896"/>
      </g>
      <path id="Path_1885" data-name="Path 1885" d="M82.431-231.347l1.209.223,19.953,31.3,18.709,6.464,33.2-12.174,1.532.986-34.944,12.475-18.92-6.536Z" transform="translate(-73.059 231.347)" fill="#009cf6"/>
      <path id="Path_1886" data-name="Path 1886" d="M101.32-190.672l-.971.344-28.019,9.555,28.57-8.684Z" transform="translate(-70.786 222.194)" fill="#0e3c4f"/>
      <path id="Path_1887" data-name="Path 1887" d="M133.821-182.332l.758.942,16.73,24.9-17.7-24.559Z" transform="translate(-84.577 220.317)" fill="#0e3c4f"/>
      <path id="Path_1888" data-name="Path 1888" d="M85.708-183.322s-8.744,4.039-9.12,6.941l-6.249-2.356Z" transform="translate(-70.338 220.54)" fill="#fff" opacity="0.5" style="mix-blend-mode: multiply;isolation: isolate"/>
      <path id="Path_1889" data-name="Path 1889" d="M144.256-165.9s4.63,7.257,3.941,11.516l5.507,1.6Z" transform="translate(-86.973 216.619)" fill="#fff" opacity="0.5" style="mix-blend-mode: multiply;isolation: isolate"/>
    </g>
  </g>
</svg>
