<svg xmlns="http://www.w3.org/2000/svg" width="15" height="15" viewBox="0 0 15 15">
  <g id="Group_971" data-name="Group 971" transform="translate(-144 -38.978)">
    <g id="Group_977" data-name="Group 977" transform="translate(144 38.768)">
      <rect id="Rectangle_1081" data-name="Rectangle 1081" width="15" height="15" transform="translate(0 0.21)" fill="none"/>
      <g id="Group_973" data-name="Group 973" transform="translate(6.098 7.479)">
        <path id="Path_1760" data-name="Path 1760" d="M159.358,54.5a.484.484,0,0,1,.325.784l-.013.013L158.279,56.7a.482.482,0,0,1-.712-.054l-.01-.015-.468-.7a.468.468,0,1,1,.779-.52l.15.225.987-1a.66.66,0,0,1,.3-.138A.322.322,0,0,1,159.358,54.5Z" transform="translate(-157.018 -54.499)" fill="#5a5a5a"/>
      </g>
      <g id="Group_974" data-name="Group 974" transform="translate(4.686 5.845)">
        <path id="Path_1761" data-name="Path 1761" d="M157.781,56.442a2.773,2.773,0,0,1-1.516.133,2.811,2.811,0,0,1-1.4-4.78,2.853,2.853,0,0,1,1.934-.788h.036a2.811,2.811,0,0,1,2.617,3.79l1.876,1.876a1.221,1.221,0,0,1,.2,1.408,1.194,1.194,0,0,1-1.836.269Zm2.369.381-.337.337q.268.267.541.53a.233.233,0,0,0,.351-.066.255.255,0,0,0-.046-.291Zm-1.194-1.194a2.847,2.847,0,0,1-.336.327l.533.54.335-.335ZM156.8,51.944a1.874,1.874,0,1,0,.8.175A1.892,1.892,0,0,0,156.8,51.944Z" transform="translate(-154.004 -51.007)" fill="#5a5a5a"/>
      </g>
      <g id="Group_975" data-name="Group 975" transform="translate(2.351 1.626)">
        <path id="Path_1762" data-name="Path 1762" d="M151.865,42.232a.419.419,0,0,1,.183-.178.4.4,0,0,1,.213-.051c1.574,0,3.149-.005,4.723,0a1.437,1.437,0,0,1,1.4,1.4v6.568a.483.483,0,0,1-.8.331.47.47,0,0,1-.132-.258.427.427,0,0,1-.006-.073c0-2.192.034-4.384,0-6.577a.48.48,0,0,0-.465-.459h-4.22v2.343a.408.408,0,0,1-.026.153.479.479,0,0,1-.4.313c-.02,0-.025,0-.045,0h-2.811a.482.482,0,0,1-.347-.783l.015-.016Zm-1.256,2.581h1.211V43.6Z" transform="translate(-149.018 -42)" fill="#5a5a5a"/>
      </g>
      <g id="Group_976" data-name="Group 976" transform="translate(2.342 5.862)">
        <path id="Path_1763" data-name="Path 1763" d="M160.494,46.687a.384.384,0,0,1,.163.049.489.489,0,0,1,.254.417v5.606a.483.483,0,0,0,.469.469h5.152a.4.4,0,0,1,.2.044.487.487,0,0,1,.138.749.493.493,0,0,1-.337.144c-1.72,0-3.441.005-5.162,0a1.442,1.442,0,0,1-1.4-1.4V47.153a.377.377,0,0,1,.031-.168A.485.485,0,0,1,160.494,46.687Z" transform="translate(-159.974 -46.686)" fill="#5a5a5a"/>
      </g>
    </g>
  </g>
</svg>
